External Loads File
version=1
nRows=31
nColumns=13
Range=5.000000e-03-10 seconds
endheader
time 	forceRightX 	forceRightY 	forceRightZ 	pointRightX 	pointRightY 	pointRightZ 	forceLeftX 	forceLeftY 	forceLeftZ 	pointLeftX 	pointLeftY 	pointLeftZ 		
5.005000 45.822940 889.692750 -0.000000 0.459904 0.192307 -0.192273 3.861664 -1.948968 -0.000000 0.246228 0.458709 -0.443208
5.010000 60.512094 888.343838 -0.000000 0.450763 0.186450 -0.192711 1.635179 5.416062 -0.000000 0.252818 0.465278 -0.442616
5.015000 79.762924 881.605935 -0.000000 0.440075 0.180965 -0.191148 -0.100452 14.570541 -0.000000 0.261670 0.471329 -0.444369
5.020000 92.625666 870.245635 -0.000000 0.430245 0.175997 -0.192016 -1.359800 25.283379 -0.000000 0.268602 0.476916 -0.443240
5.025000 106.110484 853.686882 -0.000000 0.419702 0.171609 -0.192654 -1.978108 37.141154 -0.000000 0.276502 0.481873 -0.443375
5.030000 118.126096 832.248977 -0.000000 0.408942 0.167696 -0.193139 -1.991777 49.537103 -0.000000 0.284447 0.486330 -0.443516
5.035000 128.684716 806.175184 -0.000000 0.397911 0.164272 -0.193398 -1.495752 61.754021 -0.000000 0.292485 0.490025 -0.443778
5.040000 137.774808 775.835297 -0.000000 0.386672 0.161357 -0.193297 -0.678828 73.154077 -0.000000 0.300749 0.493042 -0.443833
5.045000 145.256100 741.729498 -0.000000 0.375241 0.159069 -0.192919 0.218982 83.365522 -0.000000 0.309060 0.495962 -0.443631
5.050000 150.711064 704.506997 -0.000000 0.363547 0.157339 -0.192840 0.939922 92.330710 -0.000000 0.317329 0.498382 -0.443649
5.055000 154.397307 664.744198 -0.000000 0.351772 0.156161 -0.192612 1.335143 100.207064 -0.000000 0.325579 0.500098 -0.443659
5.060000 156.648962 622.984027 -0.000000 0.339930 0.155661 -0.192176 1.304451 107.222514 -0.000000 0.333825 0.501678 -0.443636
5.065000 157.803899 579.684449 -0.000000 0.328030 0.155842 -0.191478 0.790425 113.585369 -0.000000 0.342110 0.501403 -0.443296
5.070000 157.422217 535.406944 -0.000000 0.316124 0.156593 -0.190754 -0.362704 119.487756 -0.000000 0.350267 0.502634 -0.443350
5.075000 156.651803 490.172432 -0.000000 0.304360 0.157988 -0.189911 -1.890089 125.146583 -0.000000 0.358558 0.500877 -0.443088
5.080000 154.467905 444.618936 -0.000000 0.292388 0.159919 -0.189918 -3.925699 130.839581 -0.000000 0.366769 0.499592 -0.442871
5.085000 150.245191 399.388437 -0.000000 0.280605 0.162346 -0.189700 -6.554871 136.893493 -0.000000 0.374167 0.497491 -0.443273
5.090000 145.453271 354.442939 -0.000000 0.269201 0.165603 -0.189410 -9.160287 143.673330 -0.000000 0.382107 0.494675 -0.443097
5.095000 138.947259 310.836628 -0.000000 0.257956 0.169244 -0.189150 -12.072007 151.493077 -0.000000 0.389488 0.491166 -0.443509
5.100000 131.216681 269.119935 -0.000000 0.246968 0.173486 -0.189027 -15.179613 160.684673 -0.000000 0.396521 0.486996 -0.443654
5.105000 122.921043 229.772861 -0.000000 0.236869 0.178387 -0.188554 -18.245602 171.552150 -0.000000 0.403919 0.482225 -0.443620
5.110000 113.801164 193.731889 -0.000000 0.226952 0.183785 -0.188400 -21.709601 184.231869 -0.000000 0.410762 0.476878 -0.443663
5.115000 104.316254 161.497440 -0.000000 0.217227 0.189486 -0.188306 -25.731235 198.766185 -0.000000 0.417069 0.470850 -0.443890
5.120000 95.048900 133.267335 -0.000000 0.207852 0.195716 -0.188196 -30.279104 215.106616 -0.000000 0.423005 0.464233 -0.444071
5.125000 86.321500 109.122468 -0.000000 0.199296 0.202338 -0.187943 -35.439423 233.080395 -0.000000 0.428881 0.457105 -0.444104
5.130000 78.299128 89.009278 -0.000000 0.191015 0.209526 -0.187940 -41.433260 252.394156 -0.000000 0.434123 0.449533 -0.444235
5.135000 71.248871 72.555863 -0.000000 0.183126 0.217006 -0.187860 -47.929406 272.778207 -0.000000 0.439432 0.441436 -0.444467
5.140000 65.105803 59.482469 -0.000000 0.176081 0.224916 -0.187566 -55.219934 293.835403 -0.000000 0.444337 0.432998 -0.444514
5.145000 59.900446 49.265497 -0.000000 0.169415 0.233072 -0.187676 -62.918977 315.293526 -0.000000 0.448973 0.424137 -0.444545
5.150000 55.490155 41.466448 -0.000000 0.163351 0.241591 -0.187582 -70.989959 336.856276 -0.000000 0.453261 0.414940 -0.444565
5.155000 51.708654 35.675339 -0.000000 0.157940 0.250349 -0.187538 -79.454310 358.269034 -0.000000 0.457172 0.405523 -0.444626
